<?xml version="1.0" encoding="utf-8"?>
<!-- Generator: Adobe Illustrator 19.1.0, SVG Export Plug-In . SVG Version: 6.00 Build 0)  -->
<svg version="1.2" baseProfile="tiny" xmlns="http://www.w3.org/2000/svg" xmlns:xlink="http://www.w3.org/1999/xlink" x="0px"
	 y="0px" width="64px" height="64px" viewBox="0 0 64 64" xml:space="preserve">
<g id="_x36_4px_boxes">
	<rect fill="none" width="64" height="64"/>
</g>
<g id="Production">
	<g>
		<path fill="#565D64" d="M29.199,35.7343c4.1104,1.3673,7.4426-0.8863,7.4426-5.0273c0-4.0795-3.3325-8.4904-7.4426-9.8578
			c-4.1104-1.3761-7.4426,1.4159-7.4426,5.5479C21.7563,30.4856,25.0889,34.358,29.199,35.7343z M28.7495,28.9551
			c-1.4871-1.0232-2.5474-2.1113-2.5474-3.502c0-1.253,0.8674-1.9288,2.437-1.6741v-1.2667l1.5698,0.5712v1.1567
			c0.95,0.387,1.5969,0.8154,2.0789,1.1973l-0.4407,1.671c-0.3716-0.2869-1.0325-0.8439-2.0789-1.2249
			c-0.8125-0.2957-1.0603-0.0968-1.0603,0.2062c0,0.3442,0.4683,0.7762,1.6248,1.6102c1.7349,1.1959,2.3682,2.2113,2.3682,3.4642
			c0,1.2806-0.9087,2.0101-2.561,1.6979v1.4044l-1.5696-0.5714v-1.2805c-0.9639-0.3922-1.8999-0.9945-2.437-1.4654l0.4543-1.7484
			c0.6196,0.5283,1.4734,1.142,2.4094,1.4828c0.7021,0.2556,1.1843,0.2382,1.1843-0.2025
			C30.1814,30.0546,29.782,29.6476,28.7495,28.9551z M42.1558,34.0359c1.0793,0,1.9541-0.8749,1.9541-1.9541
			c0-1.0792-0.8748-1.9541-1.9541-1.9541c-1.0791,0-1.9539,0.8749-1.9539,1.9541C40.2019,33.1609,41.0767,34.0359,42.1558,34.0359z
			 M50.8274,44.0751c0-8.2067,0-16.4135,0-24.6202C36.4084,23.2169,21.9895,7.281,7.5706,16.9039c0,8.2068,0,16.4136,0,24.6202
			C21.9895,31.9012,36.4084,47.8371,50.8274,44.0751z M10.563,32.2719c0-3.1266,0-6.2532,0-9.3798
			c2.2808-1.5499,4.0725-3.5769,4.6184-5.9478c9.3413-1.3152,18.6824,4.7548,28.0237,5.9045
			c0.5466,2.3475,2.3438,4.3959,4.6299,4.7549c0,3.125,0,6.2499,0,9.3747c-2.2773,0.7446-4.0693,2.2905-4.6235,4.5063
			c-9.3452-1.1479-18.6904-7.2233-28.0356-5.9045C14.6223,33.3949,12.835,31.8361,10.563,32.2719z M16.3032,23.9651
			c-1.0791,0-1.9541,0.8749-1.9541,1.9541s0.875,1.9541,1.9541,1.9541s1.9541-0.8749,1.9541-1.9541S17.3823,23.9651,16.3032,23.9651
			z M53.437,24.121c0,7.2093,0,14.4185,0,21.6277c-13.4214,5.8672-26.8428-7.6977-40.2642-4.196c0,0.9974,0,1.995,0,2.9925
			c14.4187-3.762,28.8379,12.1738,43.2566,2.551c0-8.2067,0-16.4135,0-24.6202C55.4319,23.1417,54.4346,23.685,53.437,24.121z"/>
	</g>
</g>
</svg>
