<?xml version="1.0" encoding="utf-8"?>
<!-- Generator: Adobe Illustrator 19.1.0, SVG Export Plug-In . SVG Version: 6.00 Build 0)  -->
<svg version="1.2" baseProfile="tiny" xmlns="http://www.w3.org/2000/svg" xmlns:xlink="http://www.w3.org/1999/xlink" x="0px"
	 y="0px" width="64px" height="64px" viewBox="0 0 64 64" xml:space="preserve">
<g id="_x36_4px_boxes">
	<rect fill="none" width="64" height="64"/>
</g>
<g id="Production">
	<g>
		<path fill="#565D64" d="M54.7441,31.3926h-0.0039L33.7688,12.8141c-1.0112-0.9-2.5281-0.9-3.5383,0l-8.7905,7.7881V17.667
			c0-0.5238-0.429-0.8887-0.8872-0.8887h-4.418c-0.499,0-0.8887,0.396-0.8887,0.8887v8.4227l-5.9868,5.3029
			c-1.8435,1.6302-0.6658,4.6696,1.7722,4.6696c1.188,0,1.7434-0.6503,2.6257-1.4323l18.3406-16.25
			c2.0461,1.8124,17.762,15.7327,19.2029,17.0098c1.1013,0.9758,2.7888,0.8773,3.7686-0.2288
			C55.9475,34.0598,55.8452,32.3698,54.7441,31.3926z M13.6572,37.5058v12.7535c0,0.8948,0.7314,1.6016,1.6016,1.6016h33.4846
			c0.896,0,1.6028-0.7398,1.6028-1.6016V37.5095c-0.5554-0.3538,0.9407,0.9288-18.3535-16.1602
			C12.7568,38.3977,14.2087,37.153,13.6572,37.5058z M37.479,48.3176H26.0742v-12.713H37.479V48.3176z"/>
	</g>
</g>
</svg>
