<?xml version="1.0" encoding="UTF-8"?>
<svg id="Layer_1" xmlns="http://www.w3.org/2000/svg" baseProfile="tiny" version="1.2" viewBox="0 0 595.28 841.89">
  <!-- Generator: Adobe Illustrator 30.0.0, SVG Export Plug-In . SVG Version: 2.1.1 Build 123)  -->
  <path d="M539.88,306.37c-1-1.07-10.97-11.72-24.36-25.42l-66.22,69.59,28.73,21.93c3.87,2.95,9.33,2.5,12.67-1.03l49.14-52.06c3.44-3.65,3.46-9.34.03-13.01Z" fill="#373737"/>
  <path d="M498.61,263.91c-17.18-17.03-35.96-34.72-48.38-43.69-15.95-11.52-35.09-17.35-56.89-17.35s-36.3,5.45-36.95,5.69c-3.44,1.22-5.87,4.31-6.26,7.93-3.31,30.73-29.1,44.55-46.35,44.55-15.69,0-41.01-12-46.42-45.07-.56-3.42-2.93-6.26-6.19-7.42-.65-.23-16.24-5.69-36.95-5.69-21.8,0-40.94,5.84-56.89,17.35-12.43,8.97-31.22,26.66-48.4,43.7l68.46,72.02.14-.1-.39,210.6c0,2.52.99,4.94,2.78,6.73,1.78,1.79,4.2,2.79,6.72,2.79h233.59c5.24,0,9.49-4.25,9.5-9.49l.25-210.67.14.1,68.5-71.98ZM226.64,369.62c-1.43,0-2.58-1.16-2.58-2.58v-22.23c0-.75.33-1.47.9-1.96l11.1-9.57c.47-.4,1.07-.63,1.69-.63h27.17c1.43,0,2.58,1.16,2.58,2.58v116.98h12.09c1.43,0,2.58,1.16,2.58,2.58v21.42c0,1.43-1.16,2.58-2.58,2.58h-52.95c-1.43,0-2.58-1.16-2.58-2.58v-21.42c0-1.43,1.16-2.58,2.58-2.58h12.73v-82.59h-12.73ZM329.27,360.05v6.99c0,1.43-1.16,2.58-2.58,2.58h-22.96c-1.43,0-2.58-1.16-2.58-2.58v-20.97c0-.69.28-1.36.77-1.84l11.01-10.83c.48-.48,1.13-.74,1.81-.74h56.66c.67,0,1.32.26,1.8.73l11.48,11.11c.5.49.79,1.16.79,1.86v60.39c0,.73-.31,1.43-.85,1.92l-11.48,10.38c-.47.43-1.09.67-1.73.67h-42.12v32.51h28.06v-6.75c0-1.43,1.16-2.58,2.58-2.58h22.96c1.43,0,2.58,1.16,2.58,2.58v30.74c0,1.43-1.16,2.58-2.58,2.58h-79.15c-1.43,0-2.58-1.16-2.58-2.58v-69.48c0-.71.29-1.39.81-1.88l11.01-10.38c.48-.45,1.11-.7,1.77-.7h42.59v-33.72h-28.06Z" fill="#373737"/>
  <path d="M92.01,280.97c-13.38,13.69-23.35,24.34-24.35,25.4-3.43,3.66-3.41,9.36.03,13.01l49.14,52.06c3.34,3.53,8.81,3.98,12.67,1.03l28.68-21.88-66.18-69.62Z" fill="#373737"/>
</svg>