<?xml version="1.0" encoding="utf-8"?>
<!-- Generator: Adobe Illustrator 19.1.0, SVG Export Plug-In . SVG Version: 6.00 Build 0)  -->
<svg version="1.2" baseProfile="tiny" xmlns="http://www.w3.org/2000/svg" xmlns:xlink="http://www.w3.org/1999/xlink" x="0px"
	 y="0px" width="64px" height="64px" viewBox="0 0 64 64" xml:space="preserve">
<g id="_x36_4px_boxes">
	<rect fill="none" width="64" height="64"/>
</g>
<g id="Production">
	<g>
		<path fill="#565D64" d="M15.6506,37.4839l-2.615,3.2375c-2.78-0.5967-5.4453,1.5358-5.4453,4.4219
			c0,2.4952,2.0208,4.5212,4.5185,4.5212c3.2489,0,5.467-3.3501,4.127-6.3552l2.2683-2.8045L15.6506,37.4839z M45.1711,22.2101
			l1.2772-3.8665c1.5621-0.2423,2.8624-1.2682,3.4631-2.6769l0.0529-0.1559c0.0284-0.0721,0.0464-0.1482,0.0696-0.2217
			c0.1455-0.4421,0.2422-0.9047,0.2422-1.3945c0-2.499-2.026-4.5212-4.5237-4.5212c-1.9809,0-3.6487,1.285-4.2583,3.0635
			c-0.1572,0.4589-0.2629,0.9447-0.2629,1.4576c0,1.2373,0.5,2.356,1.3042,3.1718l-1.5787,4.7712L45.1711,22.2101z M52.3293,22.8532
			c-0.147-0.0154-0.2888-0.0451-0.4421-0.0451c-1.6084,0-3.0133,0.8494-3.8149,2.1188c0,0-9.8677-0.8702-15.877-1.4009
			c-0.9682-1.8715-3.157-2.9593-5.4016-2.209c-2.3472,0.7707-3.7669,3.3276-2.8173,5.8654l-2.6047,3.2234l2.8534,3.021
			l2.8162-3.4811c2.1442,0.566,4.2296-0.5027,5.1527-2.2864c3.8886,0.3434,5.7164,0.5052,15.5096,1.3674
			c0.6445,1.5865,2.1602,2.7104,3.9541,2.8032c0.0774,0.0038,0.1521,0.0219,0.2295,0.0219c2.4978,0,4.5225-2.0261,4.5225-4.5212
			C56.4097,24.9849,54.6169,23.0775,52.3293,22.8532z M38.0452,30.6364l-4.9709,15.0212c-0.1895,0.0297-0.371,0.0735-0.5502,0.1263
			c-18.032-19.0958-9.4992-10.0576-15.7676-16.698c0.9979-3.0919-1.4268-5.908-4.2827-5.908c-2.4964,0-4.5237,2.0247-4.5237,4.5199
			c0,2.9355,2.8267,5.2487,5.8796,4.2892c0.4072,0.4313,10.15,10.749,15.6953,16.6219c-1.0701,3.0359,1.2401,6.0175,4.2478,6.0175
			c2.5404,0,4.5225-2.0745,4.5225-4.5186c0-1.2372-0.5-2.3572-1.3054-3.1731l5.2686-15.9272L38.0452,30.6364z"/>
	</g>
</g>
</svg>
