<?xml version="1.0" encoding="UTF-8"?>
<svg id="Layer_1" xmlns="http://www.w3.org/2000/svg" baseProfile="tiny" version="1.2" viewBox="0 0 595.28 841.89">
  <!-- Generator: Adobe Illustrator 30.0.0, SVG Export Plug-In . SVG Version: 2.1.1 Build 123)  -->
  <path d="M250.09,515.81c-51.81-22.88-88.06-74.75-88.06-134.93v-65.92h-27.54v65.92c0,62.64,33.09,117.68,82.7,148.6v77.73h32.9v-91.41Z" fill="#373737"/>
  <path d="M456.88,380.88c0,60.22-36.3,112.11-88.16,134.97v91.36h33v-77.73c49.61-30.92,82.7-85.96,82.7-148.6v-65.92h-27.54v65.92Z" fill="#373737"/>
  <path d="M409.61,380.88c0,55.23-44.93,100.16-100.16,100.16s-100.16-44.93-100.16-100.16v-65.92h-27.54v65.92c0,56.62,37.05,104.75,88.17,121.43l-.11,104.9h29.74v-101.22h19.72v101.22h29.74l.02-104.91c51.11-16.7,88.13-64.81,88.13-121.42v-65.92h-27.54v65.92Z" fill="#373737"/>
  <path d="M243.47,309.43v65.35c0,10.24,9.03,74.72,65.98,74.72s65.98-61.43,65.98-74.72v-65.35c0-4.12-2.42-7.86-6.18-9.55l-55.52-24.89c-2.72-1.22-5.84-1.22-8.56,0l-55.51,24.89c-3.76,1.69-6.18,5.43-6.18,9.55ZM309.45,296.01l45.05,20.2v39.49c-11.51-6.15-27.71-12.6-45.05-12.6s-33.54,6.45-45.05,12.6v-39.49l45.05-20.2Z" fill="#373737"/>
  <path d="M141.84,298.17c0,.12,0,.23.01.35h55.09l20.94-50.75c1.97-4.75.3-10.38-4.19-13.22-5.03-3.19-11.7-1.7-14.89,3.33l-7.54,11.9-26.99-53.08c-1.96-3.84-5.96-6.47-10.56-6.47-6.55,0-11.86,5.31-11.86,11.86v96.08Z" fill="#373737"/>
  <path d="M427.65,249.78l-7.54-11.9c-3.19-5.03-9.85-6.52-14.89-3.33-4.49,2.85-6.16,8.47-4.19,13.22l20.94,50.75h55.09c0-.12.01-.24.01-.35v-96.08c0-6.55-5.31-11.86-11.86-11.86-4.61,0-8.6,2.63-10.56,6.47l-26.99,53.07Z" fill="#373737"/>
</svg>