<?xml version="1.0" encoding="UTF-8"?>
<svg id="Layer_1" xmlns="http://www.w3.org/2000/svg" baseProfile="tiny" version="1.2" viewBox="0 0 1920 1080">
  <!-- Generator: Adobe Illustrator 30.0.0, SVG Export Plug-In . SVG Version: 2.1.1 Build 123)  -->
  <path d="M1054.8,98.19c-16.52-17.52-66.31-45.31-129.6-45.31-24.47,0-48.29,4.27-70.8,12.69-51.8,19.37-89.48,53.89-111.97,79.43-28.86,32.79-49.93,70.67-57.8,103.94-14.35,60.64-9.6,135.17,27.26,160.3,19.68,13.42,44.34,21.81,59.4,26.09l-68.06,485.86,16.23.95c129.66,7.63,207.51,47.7,208.28,48.1l11.85,6.25,7.54-11.1c35.6-52.41,83.67-71.37,84.11-71.54l11.09-4.2-61.75-477.37c51.58-45.71,81.98-97.36,92.83-157.68,2.02-11.27,3.43-23.18,4.31-36.43,2.83-43.08-3.13-99.01-22.91-119.99Z" fill="#e1e1e1"/>
  <g>
    <path d="M893.44,105.82c-14.89-3.79-19.09,11.91-19.09,11.91l35.73,5.68s-1.76-13.8-16.64-17.59Z" fill="#555"/>
    <path d="M868.4,125.71c-15.84-5.54-25.85,7.31-27.2,12.32l42.22,5.68s.81-12.45-15.02-18Z" fill="#555"/>
    <path d="M839.98,148.18c-20.44-5.82-27.48,10.15-28.15,13.81l48.86,5.41s-.28-13.4-20.71-19.22Z" fill="#555"/>
    <path d="M817.65,174.57c-18.54-6.77-31.99,7.13-34.33,13.85l53.41,5.23s-.54-12.31-19.08-19.08Z" fill="#555"/>
    <path d="M797.13,219.95l23.09,2.94s-4.33-22.47-30.95-22.47c-18.22,0-24.69,9.27-26.95,15.11l14.25,1.81c-6.13,9.7-15.59,26.67-22.67,48.58-9.98,30.92-11.82,60.16-12.12,66.81-.04.85.44,1.63,1.22,1.98,1.14.51,2.46-.09,2.83-1.28,2.19-7.11,9.87-30.74,24.67-64.53,9.99-22.79,19.86-39.05,26.63-48.95Z" fill="#555"/>
    <path d="M1043.89,108.48c-20.75-22.01-101.23-59.91-184.24-28.87-83.01,31.04-146.08,112.15-160.42,172.78-14.35,60.63-6.68,125.5,21.11,144.45,27.79,18.95,67.67,27.25,67.67,27.25l-67.67,483.07c134.98,7.94,214.38,49.8,214.38,49.8,38.97-57.38,91.21-77.14,91.21-77.14l-61.26-473.59c63.9-54.29,85.88-109.3,93.97-154.27,2.23-12.43,3.4-24.09,4.11-34.76,3.24-49.26-5.48-94.53-18.86-108.72ZM852.04,897.81c-58.36-11.63-104.9-13.66-104.9-13.66l57.65-423.34c48,29.69,66.59,78.59,66.59,78.59l-19.34,358.41ZM898.21,907.68l4.5-288.07c.02-1.18.51-2.24,1.29-3,.77-.77,1.84-1.24,3.02-1.24,2.28,0,4.16,1.78,4.3,4.05l17.44,295.86s-4.92-1.83-30.55-7.6ZM879.5,395.4c-72.45,16.24-118.26-.9-139.6-12.99-9.12-5.16-15.55-14-17.73-24.25-3.88-18.27-8.83-51.19-3.27-83.3,8.3-48,41.14-106.11,103.21-150.14,53.5-37.94,119.32-33.07,136.5-30.99,7.2,14.29,14.14,35.05,12.92,60.68-2.44,50.88-30.32,111.51-80.12,155.91-40.71,36.28-107.95,48.51-131.15,51.77-2.42.34-2.85,3.65-.59,4.61,16.65,7.06,38.18,10.29,90.59,10.29,60.64,0,120.73-40.42,120.73-40.42l3.05,5.2c-29.88,25.55-62.51,46.45-94.54,53.63Z" fill="#555"/>
  </g>
</svg>