<?xml version="1.0" encoding="UTF-8"?>
<svg id="Layer_2" xmlns="http://www.w3.org/2000/svg" baseProfile="tiny" version="1.2" viewBox="0 0 1024.97 522.78">
  <!-- Generator: Adobe Illustrator 30.0.0, SVG Export Plug-In . SVG Version: 2.1.1 Build 123)  -->
  <path d="M1023.21,328.72s-147.84-16.01-301.33-12.78c0,0-141.46-.17-238.94,2.65,0,0,167.92-54.67,276.36-89.44,0,0,134.57-43.56,203.93-68.7,11.53-4.23,18.34-16.1,16.1-28.13-4.81-25.3-16.59-68.03-44.55-100.8-17.68-20.64-43.98-31.92-71.19-31.52-49.86.91-155.56,4.89-287.97,21.82-4.65.58-9.46-.33-13.52-2.74-5.72-3.48-14.93-8.38-24.14-11.45-3.32-1-6.8-.75-9.79.99-8.21,4.65-27.13,15.02-47.37,23.15-1.74.66-3.48,1.16-5.31,1.41-15.27,2.32-97.24,14.19-302.08,32.36-8.79.83-17.75.25-26.3-1.91-5.47-1.37-11.81-3.36-17.89-6.08-1.4-.63-2.98.2-3.14,1.72-1.42,13.93-3.98,71.97,49.41,88.65,9.71,2.99,19.91,3.65,29.95,2.99,28.21-1.99,101.72-7.96,151.83-19.16-67.37,66.12-135.4,134.82-203.85,206C100.72,392.52,49.61,446.95,0,500.87c0,0,7.55,2.49,15.76-2.74,1.74-1.08,4.07-.25,4.56,1.83,1.33,5.56,4.23,15.02,9.87,20.91,0,0,1.91-4.56,6.31-7.3,0,0,3.4,3.48,2.74,9.21,0,0,5.56-1.24,8.21-6.47,0,0,1.58,6.31,6.8,5.72,0,0,2.9-8.45,8.7-13.92,1.6-1.51,4.28-.73,4.9,1.38,1.16,3.9,3.56,8.9,8.47,8.65,0,0,20.63-19.47,63.07-43.16,9.56-5.34,18.8-11.22,27.64-17.69,18.47-13.54,49.91-37.04,72.14-56.2,5.7-4.91,11.42-9.71,17.32-14.37,7.2-5.68,17.03-13.68,23.43-19.57,0,0,2.74,13.36,9.62,26.63,7.55,14.6,22.65,23.73,38.99,23.89,30.12.33,95.99.75,155.89-1.24l360.82-22.82c7.55-.5,14.6-3.57,20.08-8.71l.17-.17c1.99-1.91,4.07-4.07,6.8-4.56,2.74-.5,6.06,1.99,5.14,4.65,2.24-.08,4.48-.75,6.47-1.99,2.49-1.49,4.4-3.9,6.89-5.48,2.57-1.49,6.14-2.07,8.21,0,1.66,1.49,2.41,4.4,4.65,4.48.66.08,1.33-.25,1.91-.5,2.99-1.41,5.81-3.24,8.3-5.39,1.83-1.58,3.73-3.48,6.22-3.73,1.58-.17,3.24.33,4.73.91,8.13,2.9,20.58,4.31,20.58,4.31,2.82-2.65,3.24-2.32,4.65-5.81.25-.66.58-1.41,1.16-1.74.58-.33,1.24-.33,1.83-.25,6.89.58,13.69,2.07,20.58,1.74,6.14-.41,11.95-2.24,17.84-4.07,1.49-.5,2.99-1,4.4-1.74,1.49-.83,2.9-1.99,4.23-3.15,5.64-5.23,11.28-10.37,16.92-15.51,2.65-2.41,5.23-4.89,6.8-8.05,1.58-3.24,1.74-7.38-.58-10.12h0ZM545.41,122.22c11.86-8.3,25.8-13.11,40.32-14.02,34.51-2.07,77.49-.91,77.49-.91,94.17-1.41,127.52-7.8,137.72-10.54,2.16-.58,4.23,1.24,3.9,3.4-1.74,10.95-13.19,14.19-13.19,14.19l-79.48,27.38s-32.77,11.45-66.21,23.06c-33.52,11.62-67.62,23.31-70.44,23.98-5.39,1.33-32.11,11.2-49.12,17.67-8.05,3.07-16.34,5.56-24.81,7.38-6.22,1.41-12.36,3.15-18.34,5.39l-72.51,26.55c58.91-66.46,109.1-105.53,134.65-123.54h.02Z" fill="#d31c1c"/>
</svg>